<svg xmlns="http://www.w3.org/2000/svg" width="940" height="584" viewBox="0 0 940 584">
<style>text{font-family:Arial,Helvetica,sans-serif;font-size:12px;fill:#1f2933}.title{font-size:18px;font-weight:700}.small{font-size:10px}</style>
<rect width="940" height="584" fill="white"/>
<text x="10" y="28" class="title">Data/figure/table reasoning by knowledge topic</text>
<text x="8" y="68" class="small">Cardiovascular, respiratory and renal</text>
<text x="8" y="78" class="small">systems</text>
<rect x="330" y="56" width="540.0" height="20" fill="#6a51a3"/>
<text x="875.0" y="70" class="small">15.0</text>
<text x="8" y="95" class="small">Population/community ecology and</text>
<text x="8" y="105" class="small">biodiversity</text>
<rect x="330" y="83" width="504.0" height="20" fill="#6a51a3"/>
<text x="839.0" y="97" class="small">14.0</text>
<text x="8" y="122" class="small">Plant tissues, xylem/phloem and water</text>
<text x="8" y="132" class="small">transport</text>
<rect x="330" y="110" width="360.0" height="20" fill="#6a51a3"/>
<text x="695.0" y="124" class="small">10.0</text>
<text x="8" y="149" class="small">Phylogeny, cladograms and systematics</text>
<rect x="330" y="137" width="324.0" height="20" fill="#6a51a3"/>
<text x="659.0" y="151" class="small">9.0</text>
<text x="8" y="176" class="small">Plant reproduction, development and life</text>
<text x="8" y="186" class="small">cycles</text>
<rect x="330" y="164" width="288.0" height="20" fill="#6a51a3"/>
<text x="623.0" y="178" class="small">8.0</text>
<text x="8" y="203" class="small">Pedigrees and inheritance modes</text>
<rect x="330" y="191" width="288.0" height="20" fill="#6a51a3"/>
<text x="623.0" y="205" class="small">8.0</text>
<text x="8" y="230" class="small">Mendelian genetics and probability</text>
<rect x="330" y="218" width="252.0" height="20" fill="#6a51a3"/>
<text x="587.0" y="232" class="small">7.0</text>
<text x="8" y="257" class="small">Microbiology, viruses, bacteria and</text>
<text x="8" y="267" class="small">pathogens</text>
<rect x="330" y="245" width="252.0" height="20" fill="#6a51a3"/>
<text x="587.0" y="259" class="small">7.0</text>
<text x="8" y="284" class="small">Transcription, translation and gene</text>
<text x="8" y="294" class="small">regulation</text>
<rect x="330" y="272" width="252.0" height="20" fill="#6a51a3"/>
<text x="587.0" y="286" class="small">7.0</text>
<text x="8" y="311" class="small">Protein structure, amino acids and enzymes</text>
<rect x="330" y="299" width="216.0" height="20" fill="#6a51a3"/>
<text x="551.0" y="313" class="small">6.0</text>
<text x="8" y="338" class="small">Evolution, selection, adaptation and</text>
<text x="8" y="348" class="small">speciation</text>
<rect x="330" y="326" width="180.0" height="20" fill="#6a51a3"/>
<text x="515.0" y="340" class="small">5.0</text>
<text x="8" y="365" class="small">Behavior, learning and ethology</text>
<rect x="330" y="353" width="180.0" height="20" fill="#6a51a3"/>
<text x="515.0" y="367" class="small">5.0</text>
<text x="8" y="392" class="small">Ecosystems, productivity and biogeochemical</text>
<text x="8" y="402" class="small">cycles</text>
<rect x="330" y="380" width="180.0" height="20" fill="#6a51a3"/>
<text x="515.0" y="394" class="small">5.0</text>
<text x="8" y="419" class="small">Lab methods, biotechnology and molecular</text>
<text x="8" y="429" class="small">tools</text>
<rect x="330" y="407" width="180.0" height="20" fill="#6a51a3"/>
<text x="515.0" y="421" class="small">5.0</text>
<text x="8" y="446" class="small">Endocrine feedback and homeostasis</text>
<rect x="330" y="434" width="144.0" height="20" fill="#6a51a3"/>
<text x="479.0" y="448" class="small">4.0</text>
<text x="8" y="473" class="small">Immunology, inflammation and host defense</text>
<rect x="330" y="461" width="144.0" height="20" fill="#6a51a3"/>
<text x="479.0" y="475" class="small">4.0</text>
<text x="8" y="500" class="small">Biomolecules, macromolecules and biochemical</text>
<text x="8" y="510" class="small">tests</text>
<rect x="330" y="488" width="144.0" height="20" fill="#6a51a3"/>
<text x="479.0" y="502" class="small">4.0</text>
<text x="8" y="527" class="small">Neurophysiology, muscle and sensory systems</text>
<rect x="330" y="515" width="108.0" height="20" fill="#6a51a3"/>
<text x="443.0" y="529" class="small">3.0</text>
<text x="330" y="572" class="small">question count</text>
</svg>