<svg xmlns="http://www.w3.org/2000/svg" width="940" height="584" viewBox="0 0 940 584">
<style>text{font-family:Arial,Helvetica,sans-serif;font-size:12px;fill:#1f2933}.title{font-size:18px;font-weight:700}.small{font-size:10px}</style>
<rect width="940" height="584" fill="white"/>
<text x="10" y="28" class="title">Experimental/control reasoning by knowledge topic</text>
<text x="8" y="68" class="small">Plant reproduction, development and life</text>
<text x="8" y="78" class="small">cycles</text>
<rect x="330" y="56" width="540.0" height="20" fill="#b45f06"/>
<text x="875.0" y="70" class="small">9.0</text>
<text x="8" y="95" class="small">Cardiovascular, respiratory and renal</text>
<text x="8" y="105" class="small">systems</text>
<rect x="330" y="83" width="420.0" height="20" fill="#b45f06"/>
<text x="755.0" y="97" class="small">7.0</text>
<text x="8" y="122" class="small">Evolution, selection, adaptation and</text>
<text x="8" y="132" class="small">speciation</text>
<rect x="330" y="110" width="360.0" height="20" fill="#b45f06"/>
<text x="695.0" y="124" class="small">6.0</text>
<text x="8" y="149" class="small">Population/community ecology and</text>
<text x="8" y="159" class="small">biodiversity</text>
<rect x="330" y="137" width="360.0" height="20" fill="#b45f06"/>
<text x="695.0" y="151" class="small">6.0</text>
<text x="8" y="176" class="small">Endocrine feedback and homeostasis</text>
<rect x="330" y="164" width="360.0" height="20" fill="#b45f06"/>
<text x="695.0" y="178" class="small">6.0</text>
<text x="8" y="203" class="small">Lab methods, biotechnology and molecular</text>
<text x="8" y="213" class="small">tools</text>
<rect x="330" y="191" width="360.0" height="20" fill="#b45f06"/>
<text x="695.0" y="205" class="small">6.0</text>
<text x="8" y="230" class="small">Neurophysiology, muscle and sensory systems</text>
<rect x="330" y="218" width="300.0" height="20" fill="#b45f06"/>
<text x="635.0" y="232" class="small">5.0</text>
<text x="8" y="257" class="small">Behavior, learning and ethology</text>
<rect x="330" y="245" width="300.0" height="20" fill="#b45f06"/>
<text x="635.0" y="259" class="small">5.0</text>
<text x="8" y="284" class="small">Transcription, translation and gene</text>
<text x="8" y="294" class="small">regulation</text>
<rect x="330" y="272" width="300.0" height="20" fill="#b45f06"/>
<text x="635.0" y="286" class="small">5.0</text>
<text x="8" y="311" class="small">Immunology, inflammation and host defense</text>
<rect x="330" y="299" width="240.0" height="20" fill="#b45f06"/>
<text x="575.0" y="313" class="small">4.0</text>
<text x="8" y="338" class="small">Development, reproduction and embryology</text>
<rect x="330" y="326" width="240.0" height="20" fill="#b45f06"/>
<text x="575.0" y="340" class="small">4.0</text>
<text x="8" y="365" class="small">Organelles, cytoskeleton and intracellular</text>
<text x="8" y="375" class="small">trafficking</text>
<rect x="330" y="353" width="240.0" height="20" fill="#b45f06"/>
<text x="575.0" y="367" class="small">4.0</text>
<text x="8" y="392" class="small">Mendelian genetics and probability</text>
<rect x="330" y="380" width="180.0" height="20" fill="#b45f06"/>
<text x="515.0" y="394" class="small">3.0</text>
<text x="8" y="419" class="small">Plant tissues, xylem/phloem and water</text>
<text x="8" y="429" class="small">transport</text>
<rect x="330" y="407" width="180.0" height="20" fill="#b45f06"/>
<text x="515.0" y="421" class="small">3.0</text>
<text x="8" y="446" class="small">Photosynthesis, pigments and carbon fixation</text>
<rect x="330" y="434" width="180.0" height="20" fill="#b45f06"/>
<text x="515.0" y="448" class="small">3.0</text>
<text x="8" y="473" class="small">Cell cycle, meiosis and cancer checkpoints</text>
<rect x="330" y="461" width="180.0" height="20" fill="#b45f06"/>
<text x="515.0" y="475" class="small">3.0</text>
<text x="8" y="500" class="small">Plant hormones, tropisms and environmental</text>
<text x="8" y="510" class="small">responses</text>
<rect x="330" y="488" width="180.0" height="20" fill="#b45f06"/>
<text x="515.0" y="502" class="small">3.0</text>
<text x="8" y="527" class="small">Microbiology, viruses, bacteria and</text>
<text x="8" y="537" class="small">pathogens</text>
<rect x="330" y="515" width="120.0" height="20" fill="#b45f06"/>
<text x="455.0" y="529" class="small">2.0</text>
<text x="330" y="572" class="small">question count</text>
</svg>