<svg xmlns="http://www.w3.org/2000/svg" width="681" height="726" viewBox="0 0 681 726">
<style>text{font-family:Arial,Helvetica,sans-serif;font-size:12px;fill:#1f2933}.title{font-size:18px;font-weight:700}.small{font-size:10px}.head{font-weight:700}</style>
<rect width="681" height="726" fill="white"/>
<text x="10" y="28" class="title">Knowledge subtopic hits by exam stage</text>
<text x="342.0" y="40" text-anchor="middle" class="head small">Early</text>
<text x="342.0" y="52" text-anchor="middle" class="head small">2003-08</text>
<text x="406.0" y="40" text-anchor="middle" class="head small">Middle</text>
<text x="406.0" y="52" text-anchor="middle" class="head small">2009-13</text>
<text x="470.0" y="40" text-anchor="middle" class="head small">Late</text>
<text x="470.0" y="52" text-anchor="middle" class="head small">2014-18</text>
<text x="534.0" y="40" text-anchor="middle" class="head small">Recent</text>
<text x="534.0" y="52" text-anchor="middle" class="head small">2019-24</text>
<text x="8" y="77" class="small">Cardiovascular, respiratory and renal</text>
<text x="8" y="87" class="small">systems</text>
<rect x="310" y="64" width="62" height="22" fill="#1b5e78" stroke="#ffffff"/>
<text x="342.0" y="79" text-anchor="middle" class="small">36</text>
<rect x="374" y="64" width="62" height="22" fill="#20627b" stroke="#ffffff"/>
<text x="406.0" y="79" text-anchor="middle" class="small">34</text>
<rect x="438" y="64" width="62" height="22" fill="#487e95" stroke="#ffffff"/>
<text x="470.0" y="79" text-anchor="middle" class="small">22</text>
<rect x="502" y="64" width="62" height="22" fill="#2d6b83" stroke="#ffffff"/>
<text x="534.0" y="79" text-anchor="middle" class="small">30</text>
<text x="8" y="101" class="small">Mendelian genetics and probability</text>
<rect x="310" y="88" width="62" height="22" fill="#336f87" stroke="#ffffff"/>
<text x="342.0" y="103" text-anchor="middle" class="small">28</text>
<rect x="374" y="88" width="62" height="22" fill="#447c93" stroke="#ffffff"/>
<text x="406.0" y="103" text-anchor="middle" class="small">23</text>
<rect x="438" y="88" width="62" height="22" fill="#588a9f" stroke="#ffffff"/>
<text x="470.0" y="103" text-anchor="middle" class="small">18</text>
<rect x="502" y="88" width="62" height="22" fill="#23647d" stroke="#ffffff"/>
<text x="534.0" y="103" text-anchor="middle" class="small">33</text>
<text x="8" y="125" class="small">Microbiology, viruses, bacteria and</text>
<text x="8" y="135" class="small">pathogens</text>
<rect x="310" y="112" width="62" height="22" fill="#3d778e" stroke="#ffffff"/>
<text x="342.0" y="127" text-anchor="middle" class="small">25</text>
<rect x="374" y="112" width="62" height="22" fill="#83a9bb" stroke="#ffffff"/>
<text x="406.0" y="127" text-anchor="middle" class="small">9</text>
<rect x="438" y="112" width="62" height="22" fill="#417990" stroke="#ffffff"/>
<text x="470.0" y="127" text-anchor="middle" class="small">24</text>
<rect x="502" y="112" width="62" height="22" fill="#2d6b83" stroke="#ffffff"/>
<text x="534.0" y="127" text-anchor="middle" class="small">30</text>
<text x="8" y="149" class="small">Population/community ecology and</text>
<text x="8" y="159" class="small">biodiversity</text>
<rect x="310" y="136" width="62" height="22" fill="#487e95" stroke="#ffffff"/>
<text x="342.0" y="151" text-anchor="middle" class="small">22</text>
<rect x="374" y="136" width="62" height="22" fill="#50849a" stroke="#ffffff"/>
<text x="406.0" y="151" text-anchor="middle" class="small">20</text>
<rect x="438" y="136" width="62" height="22" fill="#5c8da2" stroke="#ffffff"/>
<text x="470.0" y="151" text-anchor="middle" class="small">17</text>
<rect x="502" y="136" width="62" height="22" fill="#37728a" stroke="#ffffff"/>
<text x="534.0" y="151" text-anchor="middle" class="small">27</text>
<text x="8" y="173" class="small">Evolution, selection, adaptation and</text>
<text x="8" y="183" class="small">speciation</text>
<rect x="310" y="160" width="62" height="22" fill="#487e95" stroke="#ffffff"/>
<text x="342.0" y="175" text-anchor="middle" class="small">22</text>
<rect x="374" y="160" width="62" height="22" fill="#4c8197" stroke="#ffffff"/>
<text x="406.0" y="175" text-anchor="middle" class="small">21</text>
<rect x="438" y="160" width="62" height="22" fill="#6090a5" stroke="#ffffff"/>
<text x="470.0" y="175" text-anchor="middle" class="small">16</text>
<rect x="502" y="160" width="62" height="22" fill="#447c93" stroke="#ffffff"/>
<text x="534.0" y="175" text-anchor="middle" class="small">23</text>
<text x="8" y="197" class="small">Plant tissues, xylem/phloem and water</text>
<text x="8" y="207" class="small">transport</text>
<rect x="310" y="184" width="62" height="22" fill="#588a9f" stroke="#ffffff"/>
<text x="342.0" y="199" text-anchor="middle" class="small">18</text>
<rect x="374" y="184" width="62" height="22" fill="#78a1b4" stroke="#ffffff"/>
<text x="406.0" y="199" text-anchor="middle" class="small">11</text>
<rect x="438" y="184" width="62" height="22" fill="#6593a7" stroke="#ffffff"/>
<text x="470.0" y="199" text-anchor="middle" class="small">15</text>
<rect x="502" y="184" width="62" height="22" fill="#3d778e" stroke="#ffffff"/>
<text x="534.0" y="199" text-anchor="middle" class="small">25</text>
<text x="8" y="221" class="small">Plant reproduction, development and life</text>
<text x="8" y="231" class="small">cycles</text>
<rect x="310" y="208" width="62" height="22" fill="#50849a" stroke="#ffffff"/>
<text x="342.0" y="223" text-anchor="middle" class="small">20</text>
<rect x="374" y="208" width="62" height="22" fill="#54879c" stroke="#ffffff"/>
<text x="406.0" y="223" text-anchor="middle" class="small">19</text>
<rect x="438" y="208" width="62" height="22" fill="#6996aa" stroke="#ffffff"/>
<text x="470.0" y="223" text-anchor="middle" class="small">14</text>
<rect x="502" y="208" width="62" height="22" fill="#6996aa" stroke="#ffffff"/>
<text x="534.0" y="223" text-anchor="middle" class="small">14</text>
<text x="8" y="245" class="small">Neurophysiology, muscle and sensory</text>
<text x="8" y="255" class="small">systems</text>
<rect x="310" y="232" width="62" height="22" fill="#6593a7" stroke="#ffffff"/>
<text x="342.0" y="247" text-anchor="middle" class="small">15</text>
<rect x="374" y="232" width="62" height="22" fill="#6996aa" stroke="#ffffff"/>
<text x="406.0" y="247" text-anchor="middle" class="small">14</text>
<rect x="438" y="232" width="62" height="22" fill="#6996aa" stroke="#ffffff"/>
<text x="470.0" y="247" text-anchor="middle" class="small">14</text>
<rect x="502" y="232" width="62" height="22" fill="#54879c" stroke="#ffffff"/>
<text x="534.0" y="247" text-anchor="middle" class="small">19</text>
<text x="8" y="269" class="small">Lab methods, biotechnology and molecular</text>
<text x="8" y="279" class="small">tools</text>
<rect x="310" y="256" width="62" height="22" fill="#83a9bb" stroke="#ffffff"/>
<text x="342.0" y="271" text-anchor="middle" class="small">9</text>
<rect x="374" y="256" width="62" height="22" fill="#9ebccc" stroke="#ffffff"/>
<text x="406.0" y="271" text-anchor="middle" class="small">5</text>
<rect x="438" y="256" width="62" height="22" fill="#89adbf" stroke="#ffffff"/>
<text x="470.0" y="271" text-anchor="middle" class="small">8</text>
<rect x="502" y="256" width="62" height="22" fill="#3a748c" stroke="#ffffff"/>
<text x="534.0" y="271" text-anchor="middle" class="small">26</text>
<text x="8" y="293" class="small">Development, reproduction and embryology</text>
<rect x="310" y="280" width="62" height="22" fill="#83a9bb" stroke="#ffffff"/>
<text x="342.0" y="295" text-anchor="middle" class="small">9</text>
<rect x="374" y="280" width="62" height="22" fill="#739db1" stroke="#ffffff"/>
<text x="406.0" y="295" text-anchor="middle" class="small">12</text>
<rect x="438" y="280" width="62" height="22" fill="#5c8da2" stroke="#ffffff"/>
<text x="470.0" y="295" text-anchor="middle" class="small">17</text>
<rect x="502" y="280" width="62" height="22" fill="#6090a5" stroke="#ffffff"/>
<text x="534.0" y="295" text-anchor="middle" class="small">16</text>
<text x="8" y="317" class="small">Endocrine feedback and homeostasis</text>
<rect x="310" y="304" width="62" height="22" fill="#588a9f" stroke="#ffffff"/>
<text x="342.0" y="319" text-anchor="middle" class="small">18</text>
<rect x="374" y="304" width="62" height="22" fill="#739db1" stroke="#ffffff"/>
<text x="406.0" y="319" text-anchor="middle" class="small">12</text>
<rect x="438" y="304" width="62" height="22" fill="#739db1" stroke="#ffffff"/>
<text x="470.0" y="319" text-anchor="middle" class="small">12</text>
<rect x="502" y="304" width="62" height="22" fill="#6593a7" stroke="#ffffff"/>
<text x="534.0" y="319" text-anchor="middle" class="small">15</text>
<text x="8" y="341" class="small">Immunology, inflammation and host defense</text>
<rect x="310" y="328" width="62" height="22" fill="#83a9bb" stroke="#ffffff"/>
<text x="342.0" y="343" text-anchor="middle" class="small">9</text>
<rect x="374" y="328" width="62" height="22" fill="#8fb2c3" stroke="#ffffff"/>
<text x="406.0" y="343" text-anchor="middle" class="small">7</text>
<rect x="438" y="328" width="62" height="22" fill="#6e9aad" stroke="#ffffff"/>
<text x="470.0" y="343" text-anchor="middle" class="small">13</text>
<rect x="502" y="328" width="62" height="22" fill="#37728a" stroke="#ffffff"/>
<text x="534.0" y="343" text-anchor="middle" class="small">27</text>
<text x="8" y="365" class="small">Behavior, learning and ethology</text>
<rect x="310" y="352" width="62" height="22" fill="#6e9aad" stroke="#ffffff"/>
<text x="342.0" y="367" text-anchor="middle" class="small">13</text>
<rect x="374" y="352" width="62" height="22" fill="#739db1" stroke="#ffffff"/>
<text x="406.0" y="367" text-anchor="middle" class="small">12</text>
<rect x="438" y="352" width="62" height="22" fill="#6996aa" stroke="#ffffff"/>
<text x="470.0" y="367" text-anchor="middle" class="small">14</text>
<rect x="502" y="352" width="62" height="22" fill="#6593a7" stroke="#ffffff"/>
<text x="534.0" y="367" text-anchor="middle" class="small">15</text>
<text x="8" y="389" class="small">Digestion, nutrition, vitamins and</text>
<text x="8" y="399" class="small">metabolism</text>
<rect x="310" y="376" width="62" height="22" fill="#5c8da2" stroke="#ffffff"/>
<text x="342.0" y="391" text-anchor="middle" class="small">17</text>
<rect x="374" y="376" width="62" height="22" fill="#78a1b4" stroke="#ffffff"/>
<text x="406.0" y="391" text-anchor="middle" class="small">11</text>
<rect x="438" y="376" width="62" height="22" fill="#739db1" stroke="#ffffff"/>
<text x="470.0" y="391" text-anchor="middle" class="small">12</text>
<rect x="502" y="376" width="62" height="22" fill="#6593a7" stroke="#ffffff"/>
<text x="534.0" y="391" text-anchor="middle" class="small">15</text>
<text x="8" y="413" class="small">Cellular respiration, ETC and ATP</text>
<text x="8" y="423" class="small">synthesis</text>
<rect x="310" y="400" width="62" height="22" fill="#588a9f" stroke="#ffffff"/>
<text x="342.0" y="415" text-anchor="middle" class="small">18</text>
<rect x="374" y="400" width="62" height="22" fill="#83a9bb" stroke="#ffffff"/>
<text x="406.0" y="415" text-anchor="middle" class="small">9</text>
<rect x="438" y="400" width="62" height="22" fill="#6e9aad" stroke="#ffffff"/>
<text x="470.0" y="415" text-anchor="middle" class="small">13</text>
<rect x="502" y="400" width="62" height="22" fill="#739db1" stroke="#ffffff"/>
<text x="534.0" y="415" text-anchor="middle" class="small">12</text>
<text x="8" y="437" class="small">Biomolecules, macromolecules and</text>
<text x="8" y="447" class="small">biochemical tests</text>
<rect x="310" y="424" width="62" height="22" fill="#739db1" stroke="#ffffff"/>
<text x="342.0" y="439" text-anchor="middle" class="small">12</text>
<rect x="374" y="424" width="62" height="22" fill="#487e95" stroke="#ffffff"/>
<text x="406.0" y="439" text-anchor="middle" class="small">22</text>
<rect x="438" y="424" width="62" height="22" fill="#6090a5" stroke="#ffffff"/>
<text x="470.0" y="439" text-anchor="middle" class="small">16</text>
<rect x="502" y="424" width="62" height="22" fill="#6996aa" stroke="#ffffff"/>
<text x="534.0" y="439" text-anchor="middle" class="small">14</text>
<text x="8" y="461" class="small">Protein structure, amino acids and enzymes</text>
<rect x="310" y="448" width="62" height="22" fill="#83a9bb" stroke="#ffffff"/>
<text x="342.0" y="463" text-anchor="middle" class="small">9</text>
<rect x="374" y="448" width="62" height="22" fill="#50849a" stroke="#ffffff"/>
<text x="406.0" y="463" text-anchor="middle" class="small">20</text>
<rect x="438" y="448" width="62" height="22" fill="#83a9bb" stroke="#ffffff"/>
<text x="470.0" y="463" text-anchor="middle" class="small">9</text>
<rect x="502" y="448" width="62" height="22" fill="#6e9aad" stroke="#ffffff"/>
<text x="534.0" y="463" text-anchor="middle" class="small">13</text>
<text x="8" y="485" class="small">Photosynthesis, pigments and carbon</text>
<text x="8" y="495" class="small">fixation</text>
<rect x="310" y="472" width="62" height="22" fill="#83a9bb" stroke="#ffffff"/>
<text x="342.0" y="487" text-anchor="middle" class="small">9</text>
<rect x="374" y="472" width="62" height="22" fill="#6e9aad" stroke="#ffffff"/>
<text x="406.0" y="487" text-anchor="middle" class="small">13</text>
<rect x="438" y="472" width="62" height="22" fill="#89adbf" stroke="#ffffff"/>
<text x="470.0" y="487" text-anchor="middle" class="small">8</text>
<rect x="502" y="472" width="62" height="22" fill="#739db1" stroke="#ffffff"/>
<text x="534.0" y="487" text-anchor="middle" class="small">12</text>
<text x="8" y="509" class="small">Transcription, translation and gene</text>
<text x="8" y="519" class="small">regulation</text>
<rect x="310" y="496" width="62" height="22" fill="#588a9f" stroke="#ffffff"/>
<text x="342.0" y="511" text-anchor="middle" class="small">18</text>
<rect x="374" y="496" width="62" height="22" fill="#9ebccc" stroke="#ffffff"/>
<text x="406.0" y="511" text-anchor="middle" class="small">5</text>
<rect x="438" y="496" width="62" height="22" fill="#78a1b4" stroke="#ffffff"/>
<text x="470.0" y="511" text-anchor="middle" class="small">11</text>
<rect x="502" y="496" width="62" height="22" fill="#7da5b7" stroke="#ffffff"/>
<text x="534.0" y="511" text-anchor="middle" class="small">10</text>
<text x="8" y="533" class="small">Ecosystems, productivity and</text>
<text x="8" y="543" class="small">biogeochemical cycles</text>
<rect x="310" y="520" width="62" height="22" fill="#6e9aad" stroke="#ffffff"/>
<text x="342.0" y="535" text-anchor="middle" class="small">13</text>
<rect x="374" y="520" width="62" height="22" fill="#96b7c7" stroke="#ffffff"/>
<text x="406.0" y="535" text-anchor="middle" class="small">6</text>
<rect x="438" y="520" width="62" height="22" fill="#9ebccc" stroke="#ffffff"/>
<text x="470.0" y="535" text-anchor="middle" class="small">5</text>
<rect x="502" y="520" width="62" height="22" fill="#7da5b7" stroke="#ffffff"/>
<text x="534.0" y="535" text-anchor="middle" class="small">10</text>
<text x="8" y="557" class="small">Phylogeny, cladograms and systematics</text>
<rect x="310" y="544" width="62" height="22" fill="#6e9aad" stroke="#ffffff"/>
<text x="342.0" y="559" text-anchor="middle" class="small">13</text>
<rect x="374" y="544" width="62" height="22" fill="#7da5b7" stroke="#ffffff"/>
<text x="406.0" y="559" text-anchor="middle" class="small">10</text>
<rect x="438" y="544" width="62" height="22" fill="#7da5b7" stroke="#ffffff"/>
<text x="470.0" y="559" text-anchor="middle" class="small">10</text>
<rect x="502" y="544" width="62" height="22" fill="#89adbf" stroke="#ffffff"/>
<text x="534.0" y="559" text-anchor="middle" class="small">8</text>
<text x="8" y="581" class="small">Pedigrees and inheritance modes</text>
<rect x="310" y="568" width="62" height="22" fill="#78a1b4" stroke="#ffffff"/>
<text x="342.0" y="583" text-anchor="middle" class="small">11</text>
<rect x="374" y="568" width="62" height="22" fill="#89adbf" stroke="#ffffff"/>
<text x="406.0" y="583" text-anchor="middle" class="small">8</text>
<rect x="438" y="568" width="62" height="22" fill="#a6c2d2" stroke="#ffffff"/>
<text x="470.0" y="583" text-anchor="middle" class="small">4</text>
<rect x="502" y="568" width="62" height="22" fill="#6090a5" stroke="#ffffff"/>
<text x="534.0" y="583" text-anchor="middle" class="small">16</text>
<text x="8" y="605" class="small">Membrane transport, osmosis and</text>
<text x="8" y="615" class="small">electrochemical gradients</text>
<rect x="310" y="592" width="62" height="22" fill="#78a1b4" stroke="#ffffff"/>
<text x="342.0" y="607" text-anchor="middle" class="small">11</text>
<rect x="374" y="592" width="62" height="22" fill="#83a9bb" stroke="#ffffff"/>
<text x="406.0" y="607" text-anchor="middle" class="small">9</text>
<rect x="438" y="592" width="62" height="22" fill="#96b7c7" stroke="#ffffff"/>
<text x="470.0" y="607" text-anchor="middle" class="small">6</text>
<rect x="502" y="592" width="62" height="22" fill="#6e9aad" stroke="#ffffff"/>
<text x="534.0" y="607" text-anchor="middle" class="small">13</text>
<text x="8" y="629" class="small">DNA replication, chromosomes and telomeres</text>
<rect x="310" y="616" width="62" height="22" fill="#7da5b7" stroke="#ffffff"/>
<text x="342.0" y="631" text-anchor="middle" class="small">10</text>
<rect x="374" y="616" width="62" height="22" fill="#96b7c7" stroke="#ffffff"/>
<text x="406.0" y="631" text-anchor="middle" class="small">6</text>
<rect x="438" y="616" width="62" height="22" fill="#6e9aad" stroke="#ffffff"/>
<text x="470.0" y="631" text-anchor="middle" class="small">13</text>
<rect x="502" y="616" width="62" height="22" fill="#8fb2c3" stroke="#ffffff"/>
<text x="534.0" y="631" text-anchor="middle" class="small">7</text>
<text x="8" y="653" class="small">Cell cycle, meiosis and cancer checkpoints</text>
<rect x="310" y="640" width="62" height="22" fill="#8fb2c3" stroke="#ffffff"/>
<text x="342.0" y="655" text-anchor="middle" class="small">7</text>
<rect x="374" y="640" width="62" height="22" fill="#bad1df" stroke="#ffffff"/>
<text x="406.0" y="655" text-anchor="middle" class="small">2</text>
<rect x="438" y="640" width="62" height="22" fill="#78a1b4" stroke="#ffffff"/>
<text x="470.0" y="655" text-anchor="middle" class="small">11</text>
<rect x="502" y="640" width="62" height="22" fill="#739db1" stroke="#ffffff"/>
<text x="534.0" y="655" text-anchor="middle" class="small">12</text>
<text x="8" y="677" class="small">Organelles, cytoskeleton and intracellular</text>
<text x="8" y="687" class="small">trafficking</text>
<rect x="310" y="664" width="62" height="22" fill="#78a1b4" stroke="#ffffff"/>
<text x="342.0" y="679" text-anchor="middle" class="small">11</text>
<rect x="374" y="664" width="62" height="22" fill="#8fb2c3" stroke="#ffffff"/>
<text x="406.0" y="679" text-anchor="middle" class="small">7</text>
<rect x="438" y="664" width="62" height="22" fill="#89adbf" stroke="#ffffff"/>
<text x="470.0" y="679" text-anchor="middle" class="small">8</text>
<rect x="502" y="664" width="62" height="22" fill="#78a1b4" stroke="#ffffff"/>
<text x="534.0" y="679" text-anchor="middle" class="small">11</text>
<text x="582" y="56" class="small head">sqrt scale</text>
<rect x="582" y="64" width="18" height="16" fill="#ecf5ff" stroke="#d1d5db"/>
<text x="606" y="76" class="small">0</text>
<rect x="582" y="88" width="18" height="16" fill="#83a9bb" stroke="#d1d5db"/>
<text x="606" y="100" class="small">9</text>
<rect x="582" y="112" width="18" height="16" fill="#1b5e78" stroke="#d1d5db"/>
<text x="606" y="124" class="small">36</text>
</svg>