<svg xmlns="http://www.w3.org/2000/svg" width="725" height="430" viewBox="0 0 725 430">
<style>text{font-family:Arial,Helvetica,sans-serif;font-size:12px;fill:#1f2933}.title{font-size:18px;font-weight:700}.small{font-size:10px}</style>
<rect width="725" height="430" fill="white"/>
<text x="10" y="28" class="title">Knowledge pillar distribution by stage</text>
<line x1="57" x2="695" y1="305" y2="305" stroke="#333"/>
<rect x="65" y="217.33024691358025" width="56" height="87.66975308641975" fill="#9ecae1"/>
<rect x="65" y="135.75925925925927" width="56" height="81.57098765432099" fill="#74c476"/>
<rect x="65" y="58.000000000000014" width="56" height="77.75925925925925" fill="#fd8d3c"/>
<rect x="65" y="58.0" width="56" height="0.0" fill="#6a51a3"/>
<text x="93.0" y="319" text-anchor="middle" class="small">324</text>
<text x="93.0" y="337" text-anchor="middle" class="small">Molecular/Cell</text>
<rect x="155" y="225.71604938271605" width="56" height="79.28395061728395" fill="#9ecae1"/>
<rect x="155" y="157.10493827160494" width="56" height="68.61111111111111" fill="#74c476"/>
<rect x="155" y="88.49382716049382" width="56" height="68.61111111111111" fill="#fd8d3c"/>
<rect x="155" y="88.49382716049382" width="56" height="0.0" fill="#6a51a3"/>
<text x="183.0" y="319" text-anchor="middle" class="small">284</text>
<text x="183.0" y="337" text-anchor="middle" class="small">Animal</text>
<text x="183.0" y="347" text-anchor="middle" class="small">Physiology</text>
<rect x="245" y="240.20061728395063" width="56" height="64.79938271604938" fill="#9ecae1"/>
<rect x="245" y="181.5" width="56" height="58.70061728395062" fill="#74c476"/>
<rect x="245" y="139.570987654321" width="56" height="41.92901234567901" fill="#fd8d3c"/>
<rect x="245" y="139.570987654321" width="56" height="0.0" fill="#6a51a3"/>
<text x="273.0" y="319" text-anchor="middle" class="small">217</text>
<text x="273.0" y="337" text-anchor="middle" class="small">Genetics/Evolution</text>
<rect x="335" y="268.4074074074074" width="56" height="36.592592592592595" fill="#9ecae1"/>
<rect x="335" y="239.43827160493825" width="56" height="28.969135802469136" fill="#74c476"/>
<rect x="335" y="211.99382716049382" width="56" height="27.444444444444443" fill="#fd8d3c"/>
<rect x="335" y="211.99382716049382" width="56" height="0.0" fill="#6a51a3"/>
<text x="363.0" y="319" text-anchor="middle" class="small">122</text>
<text x="363.0" y="337" text-anchor="middle" class="small">Ecology/Behavior</text>
<rect x="425" y="273.7438271604938" width="56" height="31.256172839506174" fill="#9ecae1"/>
<rect x="425" y="249.34876543209876" width="56" height="24.395061728395063" fill="#74c476"/>
<rect x="425" y="223.429012345679" width="56" height="25.919753086419753" fill="#fd8d3c"/>
<rect x="425" y="223.429012345679" width="56" height="0.0" fill="#6a51a3"/>
<text x="453.0" y="319" text-anchor="middle" class="small">107</text>
<text x="453.0" y="337" text-anchor="middle" class="small">Plant</text>
<rect x="515" y="285.94135802469134" width="56" height="19.058641975308642" fill="#9ecae1"/>
<rect x="515" y="279.08024691358025" width="56" height="6.861111111111111" fill="#74c476"/>
<rect x="515" y="260.78395061728395" width="56" height="18.296296296296298" fill="#fd8d3c"/>
<rect x="515" y="260.78395061728395" width="56" height="0.0" fill="#6a51a3"/>
<text x="543.0" y="319" text-anchor="middle" class="small">58</text>
<text x="543.0" y="337" text-anchor="middle" class="small">Microbiology/Pathogens</text>
<rect x="605" y="298.1388888888889" width="56" height="6.861111111111111" fill="#9ecae1"/>
<rect x="605" y="294.3271604938272" width="56" height="3.8117283950617282" fill="#74c476"/>
<rect x="605" y="288.22839506172835" width="56" height="6.098765432098766" fill="#fd8d3c"/>
<rect x="605" y="288.2283950617284" width="56" height="0.0" fill="#6a51a3"/>
<text x="633.0" y="319" text-anchor="middle" class="small">22</text>
<text x="633.0" y="337" text-anchor="middle" class="small">Molecular/Methods</text>
<rect x="540" y="48" width="11" height="11" fill="#9ecae1"/>
<text x="556" y="58" class="small">Early</text>
<rect x="540" y="64" width="11" height="11" fill="#74c476"/>
<text x="556" y="74" class="small">Middle</text>
<rect x="540" y="80" width="11" height="11" fill="#fd8d3c"/>
<text x="556" y="90" class="small">Late</text>
<rect x="540" y="96" width="11" height="11" fill="#6a51a3"/>
<text x="556" y="106" class="small">Recent</text>
</svg>