<svg xmlns="http://www.w3.org/2000/svg" width="980" height="631" viewBox="0 0 980 631">
<style>text{font-family:Arial,Helvetica,sans-serif;font-size:12px;fill:#1f2933}.title{font-size:18px;font-weight:700}.small{font-size:10px}</style>
<rect width="980" height="631" fill="white"/>
<text x="10" y="28" class="title">Early-to-late knowledge subtopic shifts</text>
<line x1="657.5" x2="657.5" y1="48" y2="601" stroke="#333" stroke-width="1"/>
<text x="8" y="68" class="small">Cardiovascular, respiratory and renal systems</text>
<rect x="390.0" y="56" width="267.5" height="20" fill="#b04a4a"/>
<text x="384.0" y="70" text-anchor="end" class="small">-11</text>
<text x="8" y="95" class="small">Population/community ecology and biodiversity</text>
<rect x="462.9545454545455" y="83" width="194.54545454545453" height="20" fill="#b04a4a"/>
<text x="456.9545454545455" y="97" text-anchor="end" class="small">-8</text>
<text x="8" y="122" class="small">Ecosystems, productivity and biogeochemical cycles</text>
<rect x="462.9545454545455" y="110" width="194.54545454545453" height="20" fill="#b04a4a"/>
<text x="456.9545454545455" y="124" text-anchor="end" class="small">-8</text>
<text x="8" y="149" class="small">Mendelian genetics and probability</text>
<rect x="487.27272727272725" y="137" width="170.22727272727272" height="20" fill="#b04a4a"/>
<text x="481.27272727272725" y="151" text-anchor="end" class="small">-7</text>
<text x="8" y="176" class="small">Evolution, selection, adaptation and speciation</text>
<rect x="487.27272727272725" y="164" width="170.22727272727272" height="20" fill="#b04a4a"/>
<text x="481.27272727272725" y="178" text-anchor="end" class="small">-7</text>
<text x="8" y="203" class="small">Pedigrees and inheritance modes</text>
<rect x="487.27272727272725" y="191" width="170.22727272727272" height="20" fill="#b04a4a"/>
<text x="481.27272727272725" y="205" text-anchor="end" class="small">-7</text>
<text x="8" y="230" class="small">Digestion, nutrition, vitamins and metabolism</text>
<rect x="511.5909090909091" y="218" width="145.9090909090909" height="20" fill="#b04a4a"/>
<text x="505.5909090909091" y="232" text-anchor="end" class="small">-6</text>
<text x="8" y="257" class="small">Hardy-Weinberg and population genetics</text>
<rect x="535.9090909090909" y="245" width="121.59090909090908" height="20" fill="#b04a4a"/>
<text x="529.9090909090909" y="259" text-anchor="end" class="small">-5</text>
<text x="8" y="284" class="small">Plant tissues, xylem/phloem and water transport</text>
<rect x="560.2272727272727" y="272" width="97.27272727272727" height="20" fill="#b04a4a"/>
<text x="554.2272727272727" y="286" text-anchor="end" class="small">-4</text>
<text x="8" y="311" class="small">Endocrine feedback and homeostasis</text>
<rect x="560.2272727272727" y="299" width="97.27272727272727" height="20" fill="#b04a4a"/>
<text x="554.2272727272727" y="313" text-anchor="end" class="small">-4</text>
<text x="8" y="338" class="small">Phylogeny, cladograms and systematics</text>
<rect x="657.5" y="326" width="0.0" height="20" fill="#357a55"/>
<text x="661.5" y="340" text-anchor="start" class="small">+0</text>
<text x="8" y="365" class="small">Lab methods, biotechnology and molecular tools</text>
<rect x="657.5" y="353" width="24.318181818181817" height="20" fill="#357a55"/>
<text x="685.8181818181819" y="367" text-anchor="start" class="small">+1</text>
<text x="8" y="392" class="small">Immunology, inflammation and host defense</text>
<rect x="657.5" y="380" width="24.318181818181817" height="20" fill="#357a55"/>
<text x="685.8181818181819" y="394" text-anchor="start" class="small">+1</text>
<text x="8" y="419" class="small">Microbiology, viruses, bacteria and pathogens</text>
<rect x="657.5" y="407" width="48.63636363636363" height="20" fill="#357a55"/>
<text x="710.1363636363636" y="421" text-anchor="start" class="small">+2</text>
<text x="8" y="446" class="small">Cellular respiration, ETC and ATP synthesis</text>
<rect x="657.5" y="434" width="48.63636363636363" height="20" fill="#357a55"/>
<text x="710.1363636363636" y="448" text-anchor="start" class="small">+2</text>
<text x="8" y="473" class="small">DNA replication, chromosomes and telomeres</text>
<rect x="657.5" y="461" width="48.63636363636363" height="20" fill="#357a55"/>
<text x="710.1363636363636" y="475" text-anchor="start" class="small">+2</text>
<text x="8" y="500" class="small">Cell signaling, receptors and second messengers</text>
<rect x="657.5" y="488" width="72.95454545454545" height="20" fill="#357a55"/>
<text x="734.4545454545455" y="502" text-anchor="start" class="small">+3</text>
<text x="8" y="527" class="small">Behavior, learning and ethology</text>
<rect x="657.5" y="515" width="97.27272727272727" height="20" fill="#357a55"/>
<text x="758.7727272727273" y="529" text-anchor="start" class="small">+4</text>
<text x="8" y="554" class="small">Cell cycle, meiosis and cancer checkpoints</text>
<rect x="657.5" y="542" width="145.9090909090909" height="20" fill="#357a55"/>
<text x="807.4090909090909" y="556" text-anchor="start" class="small">+6</text>
<text x="8" y="581" class="small">Development, reproduction and embryology</text>
<rect x="657.5" y="569" width="267.5" height="20" fill="#357a55"/>
<text x="929.0" y="583" text-anchor="start" class="small">+11</text>
</svg>