<svg xmlns="http://www.w3.org/2000/svg" width="980" height="631" viewBox="0 0 980 631">
<style>text{font-family:Arial,Helvetica,sans-serif;font-size:12px;fill:#1f2933}.title{font-size:18px;font-weight:700}.small{font-size:10px}</style>
<rect width="980" height="631" fill="white"/>
<text x="10" y="28" class="title">Early-to-late knowledge subtopic shifts</text>
<line x1="657.5" x2="657.5" y1="48" y2="601" stroke="#333" stroke-width="1"/>
<text x="8" y="68" class="small">Cardiovascular, respiratory and renal systems</text>
<rect x="390.0" y="56" width="267.5" height="20" fill="#b04a4a"/>
<text x="384.0" y="70" text-anchor="end" class="small">-14</text>
<text x="8" y="95" class="small">Mendelian genetics and probability</text>
<rect x="466.42857142857144" y="83" width="191.07142857142858" height="20" fill="#b04a4a"/>
<text x="460.42857142857144" y="97" text-anchor="end" class="small">-10</text>
<text x="8" y="122" class="small">Ecosystems, productivity and biogeochemical cycles</text>
<rect x="504.6428571428571" y="110" width="152.85714285714286" height="20" fill="#b04a4a"/>
<text x="498.6428571428571" y="124" text-anchor="end" class="small">-8</text>
<text x="8" y="149" class="small">Transcription, translation and gene regulation</text>
<rect x="523.75" y="137" width="133.75" height="20" fill="#b04a4a"/>
<text x="517.75" y="151" text-anchor="end" class="small">-7</text>
<text x="8" y="176" class="small">Pedigrees and inheritance modes</text>
<rect x="523.75" y="164" width="133.75" height="20" fill="#b04a4a"/>
<text x="517.75" y="178" text-anchor="end" class="small">-7</text>
<text x="8" y="203" class="small">Evolution, selection, adaptation and speciation</text>
<rect x="542.8571428571429" y="191" width="114.64285714285714" height="20" fill="#b04a4a"/>
<text x="536.8571428571429" y="205" text-anchor="end" class="small">-6</text>
<text x="8" y="230" class="small">Plant reproduction, development and life cycles</text>
<rect x="542.8571428571429" y="218" width="114.64285714285714" height="20" fill="#b04a4a"/>
<text x="536.8571428571429" y="232" text-anchor="end" class="small">-6</text>
<text x="8" y="257" class="small">Endocrine feedback and homeostasis</text>
<rect x="542.8571428571429" y="245" width="114.64285714285714" height="20" fill="#b04a4a"/>
<text x="536.8571428571429" y="259" text-anchor="end" class="small">-6</text>
<text x="8" y="284" class="small">Hardy-Weinberg and population genetics</text>
<rect x="542.8571428571429" y="272" width="114.64285714285714" height="20" fill="#b04a4a"/>
<text x="536.8571428571429" y="286" text-anchor="end" class="small">-6</text>
<text x="8" y="311" class="small">Population/community ecology and biodiversity</text>
<rect x="561.9642857142857" y="299" width="95.53571428571429" height="20" fill="#b04a4a"/>
<text x="555.9642857142857" y="313" text-anchor="end" class="small">-5</text>
<text x="8" y="338" class="small">Protein structure, amino acids and enzymes</text>
<rect x="657.5" y="326" width="0.0" height="20" fill="#357a55"/>
<text x="661.5" y="340" text-anchor="start" class="small">+0</text>
<text x="8" y="365" class="small">Behavior, learning and ethology</text>
<rect x="657.5" y="353" width="19.107142857142858" height="20" fill="#357a55"/>
<text x="680.6071428571429" y="367" text-anchor="start" class="small">+1</text>
<text x="8" y="392" class="small">Plant hormones, tropisms and environmental</text>
<text x="8" y="402" class="small">responses</text>
<rect x="657.5" y="380" width="38.214285714285715" height="20" fill="#357a55"/>
<text x="699.7142857142857" y="394" text-anchor="start" class="small">+2</text>
<text x="8" y="419" class="small">Cell signaling, receptors and second messengers</text>
<rect x="657.5" y="407" width="38.214285714285715" height="20" fill="#357a55"/>
<text x="699.7142857142857" y="421" text-anchor="start" class="small">+2</text>
<text x="8" y="446" class="small">DNA replication, chromosomes and telomeres</text>
<rect x="657.5" y="434" width="57.32142857142857" height="20" fill="#357a55"/>
<text x="718.8214285714286" y="448" text-anchor="start" class="small">+3</text>
<text x="8" y="473" class="small">Linkage, recombination and map distance</text>
<rect x="657.5" y="461" width="57.32142857142857" height="20" fill="#357a55"/>
<text x="718.8214285714286" y="475" text-anchor="start" class="small">+3</text>
<text x="8" y="500" class="small">Immunology, inflammation and host defense</text>
<rect x="657.5" y="488" width="76.42857142857143" height="20" fill="#357a55"/>
<text x="737.9285714285714" y="502" text-anchor="start" class="small">+4</text>
<text x="8" y="527" class="small">Biomolecules, macromolecules and biochemical tests</text>
<rect x="657.5" y="515" width="76.42857142857143" height="20" fill="#357a55"/>
<text x="737.9285714285714" y="529" text-anchor="start" class="small">+4</text>
<text x="8" y="554" class="small">Cell cycle, meiosis and cancer checkpoints</text>
<rect x="657.5" y="542" width="76.42857142857143" height="20" fill="#357a55"/>
<text x="737.9285714285714" y="556" text-anchor="start" class="small">+4</text>
<text x="8" y="581" class="small">Development, reproduction and embryology</text>
<rect x="657.5" y="569" width="152.85714285714286" height="20" fill="#357a55"/>
<text x="814.3571428571429" y="583" text-anchor="start" class="small">+8</text>
</svg>