<svg xmlns="http://www.w3.org/2000/svg" width="940" height="692" viewBox="0 0 940 692">
<style>text{font-family:Arial,Helvetica,sans-serif;font-size:12px;fill:#1f2933}.title{font-size:18px;font-weight:700}.small{font-size:10px}</style>
<rect width="940" height="692" fill="white"/>
<text x="10" y="28" class="title">Learning-objective priority score</text>
<text x="8" y="68" class="small">Lab methods, biotechnology and molecular</text>
<text x="8" y="78" class="small">tools</text>
<rect x="330" y="56" width="213.82289416846652" height="20" fill="#2f6f9f"/>
<text x="548.8228941684665" y="70" class="small">55.0</text>
<text x="8" y="95" class="small">Membrane transport, osmosis and</text>
<text x="8" y="105" class="small">electrochemical gradients</text>
<rect x="330" y="83" width="226.6522678185745" height="20" fill="#2f6f9f"/>
<text x="561.6522678185745" y="97" class="small">58.3</text>
<text x="8" y="122" class="small">DNA replication, chromosomes and telomeres</text>
<rect x="330" y="110" width="230.1511879049676" height="20" fill="#2f6f9f"/>
<text x="565.1511879049676" y="124" class="small">59.2</text>
<text x="8" y="149" class="small">Cell cycle, meiosis and cancer checkpoints</text>
<rect x="330" y="137" width="231.70626349892007" height="20" fill="#2f6f9f"/>
<text x="566.7062634989201" y="151" class="small">59.6</text>
<text x="8" y="176" class="small">Protein structure, amino acids and enzymes</text>
<rect x="330" y="164" width="237.5377969762419" height="20" fill="#2f6f9f"/>
<text x="572.5377969762419" y="178" class="small">61.1</text>
<text x="8" y="203" class="small">Ecosystems, productivity and biogeochemical</text>
<text x="8" y="213" class="small">cycles</text>
<rect x="330" y="191" width="244.9244060475162" height="20" fill="#2f6f9f"/>
<text x="579.9244060475162" y="205" class="small">63.0</text>
<text x="8" y="230" class="small">Photosynthesis, pigments and carbon fixation</text>
<rect x="330" y="218" width="269.0280777537797" height="20" fill="#2f6f9f"/>
<text x="604.0280777537797" y="232" class="small">69.2</text>
<text x="8" y="257" class="small">Cellular respiration, ETC and ATP synthesis</text>
<rect x="330" y="245" width="278.7473002159827" height="20" fill="#2f6f9f"/>
<text x="613.7473002159827" y="259" class="small">71.7</text>
<text x="8" y="284" class="small">Digestion, nutrition, vitamins and</text>
<text x="8" y="294" class="small">metabolism</text>
<rect x="330" y="272" width="287.3002159827214" height="20" fill="#2f6f9f"/>
<text x="622.3002159827214" y="286" class="small">73.9</text>
<text x="8" y="311" class="small">Biomolecules, macromolecules and biochemical</text>
<text x="8" y="321" class="small">tests</text>
<rect x="330" y="299" width="288.07775377969756" height="20" fill="#2f6f9f"/>
<text x="623.0777537796976" y="313" class="small">74.1</text>
<text x="8" y="338" class="small">Transcription, translation and gene</text>
<text x="8" y="348" class="small">regulation</text>
<rect x="330" y="326" width="297.7969762419006" height="20" fill="#2f6f9f"/>
<text x="632.7969762419007" y="340" class="small">76.6</text>
<text x="8" y="365" class="small">Development, reproduction and embryology</text>
<rect x="330" y="353" width="305.18358531317494" height="20" fill="#2f6f9f"/>
<text x="640.183585313175" y="367" class="small">78.5</text>
<text x="8" y="392" class="small">Behavior, learning and ethology</text>
<rect x="330" y="380" width="307.9049676025918" height="20" fill="#2f6f9f"/>
<text x="642.9049676025918" y="394" class="small">79.2</text>
<text x="8" y="419" class="small">Plant reproduction, development and life</text>
<text x="8" y="429" class="small">cycles</text>
<rect x="330" y="407" width="324.622030237581" height="20" fill="#2f6f9f"/>
<text x="659.6220302375809" y="421" class="small">83.5</text>
<text x="8" y="446" class="small">Endocrine feedback and homeostasis</text>
<rect x="330" y="434" width="330.0647948164147" height="20" fill="#2f6f9f"/>
<text x="665.0647948164146" y="448" class="small">84.9</text>
<text x="8" y="473" class="small">Neurophysiology, muscle and sensory systems</text>
<rect x="330" y="461" width="332.3974082073434" height="20" fill="#2f6f9f"/>
<text x="667.3974082073435" y="475" class="small">85.5</text>
<text x="8" y="500" class="small">Plant tissues, xylem/phloem and water</text>
<text x="8" y="510" class="small">transport</text>
<rect x="330" y="488" width="341.3390928725702" height="20" fill="#2f6f9f"/>
<text x="676.3390928725702" y="502" class="small">87.8</text>
<text x="8" y="527" class="small">Population/community ecology and</text>
<text x="8" y="537" class="small">biodiversity</text>
<rect x="330" y="515" width="358.4449244060475" height="20" fill="#2f6f9f"/>
<text x="693.4449244060474" y="529" class="small">92.2</text>
<text x="8" y="554" class="small">Evolution, selection, adaptation and</text>
<text x="8" y="564" class="small">speciation</text>
<rect x="330" y="542" width="393.04535637149024" height="20" fill="#2f6f9f"/>
<text x="728.0453563714902" y="556" class="small">101.1</text>
<text x="8" y="581" class="small">Microbiology, viruses, bacteria and</text>
<text x="8" y="591" class="small">pathogens</text>
<rect x="330" y="569" width="428.0345572354211" height="20" fill="#2f6f9f"/>
<text x="763.0345572354211" y="583" class="small">110.1</text>
<text x="8" y="608" class="small">Mendelian genetics and probability</text>
<rect x="330" y="596" width="462.6349892008639" height="20" fill="#2f6f9f"/>
<text x="797.6349892008639" y="610" class="small">119.0</text>
<text x="8" y="635" class="small">Cardiovascular, respiratory and renal</text>
<text x="8" y="645" class="small">systems</text>
<rect x="330" y="623" width="540.0" height="20" fill="#2f6f9f"/>
<text x="875.0" y="637" class="small">138.9</text>
<text x="330" y="680" class="small">priority score</text>
</svg>