<svg xmlns="http://www.w3.org/2000/svg" width="940" height="692" viewBox="0 0 940 692">
<style>text{font-family:Arial,Helvetica,sans-serif;font-size:12px;fill:#1f2933}.title{font-size:18px;font-weight:700}.small{font-size:10px}</style>
<rect width="940" height="692" fill="white"/>
<text x="10" y="28" class="title">Learning-objective priority score</text>
<text x="8" y="68" class="small">Cardiovascular, respiratory and renal</text>
<text x="8" y="78" class="small">systems</text>
<rect x="330" y="56" width="540.0" height="20" fill="#2f6f9f"/>
<text x="875.0" y="70" class="small">105.9</text>
<text x="8" y="95" class="small">Mendelian genetics and probability</text>
<rect x="330" y="83" width="536.4305949008498" height="20" fill="#2f6f9f"/>
<text x="871.4305949008498" y="97" class="small">105.2</text>
<text x="8" y="122" class="small">Microbiology, viruses, bacteria and</text>
<text x="8" y="132" class="small">pathogens</text>
<rect x="330" y="110" width="530.8215297450424" height="20" fill="#2f6f9f"/>
<text x="865.8215297450424" y="124" class="small">104.1</text>
<text x="8" y="149" class="small">Population/community ecology and</text>
<text x="8" y="159" class="small">biodiversity</text>
<rect x="330" y="137" width="530.8215297450424" height="20" fill="#2f6f9f"/>
<text x="865.8215297450424" y="151" class="small">104.1</text>
<text x="8" y="176" class="small">Evolution, selection, adaptation and</text>
<text x="8" y="186" class="small">speciation</text>
<rect x="330" y="164" width="520.113314447592" height="20" fill="#2f6f9f"/>
<text x="855.113314447592" y="178" class="small">102.0</text>
<text x="8" y="203" class="small">Plant tissues, xylem/phloem and water</text>
<text x="8" y="213" class="small">transport</text>
<rect x="330" y="191" width="517.0538243626062" height="20" fill="#2f6f9f"/>
<text x="852.0538243626062" y="205" class="small">101.4</text>
<text x="8" y="230" class="small">Plant reproduction, development and life</text>
<text x="8" y="240" class="small">cycles</text>
<rect x="330" y="218" width="502.2662889518413" height="20" fill="#2f6f9f"/>
<text x="837.2662889518413" y="232" class="small">98.5</text>
<text x="8" y="257" class="small">Neurophysiology, muscle and sensory systems</text>
<rect x="330" y="245" width="499.71671388101976" height="20" fill="#2f6f9f"/>
<text x="834.7167138810198" y="259" class="small">98.0</text>
<text x="8" y="284" class="small">Lab methods, biotechnology and molecular</text>
<text x="8" y="294" class="small">tools</text>
<rect x="330" y="272" width="498.69688385269114" height="20" fill="#2f6f9f"/>
<text x="833.6968838526911" y="286" class="small">97.8</text>
<text x="8" y="311" class="small">Development, reproduction and embryology</text>
<rect x="330" y="299" width="493.5977337110481" height="20" fill="#2f6f9f"/>
<text x="828.597733711048" y="313" class="small">96.8</text>
<text x="8" y="338" class="small">Endocrine feedback and homeostasis</text>
<rect x="330" y="326" width="489.5184135977337" height="20" fill="#2f6f9f"/>
<text x="824.5184135977337" y="340" class="small">96.0</text>
<text x="8" y="365" class="small">Immunology, inflammation and host defense</text>
<rect x="330" y="353" width="488.498583569405" height="20" fill="#2f6f9f"/>
<text x="823.498583569405" y="367" class="small">95.8</text>
<text x="8" y="392" class="small">Behavior, learning and ethology</text>
<rect x="330" y="380" width="486.9688385269121" height="20" fill="#2f6f9f"/>
<text x="821.9688385269121" y="394" class="small">95.5</text>
<text x="8" y="419" class="small">Digestion, nutrition, vitamins and</text>
<text x="8" y="429" class="small">metabolism</text>
<rect x="330" y="407" width="485.43909348441923" height="20" fill="#2f6f9f"/>
<text x="820.4390934844192" y="421" class="small">95.2</text>
<text x="8" y="446" class="small">Cellular respiration, ETC and ATP synthesis</text>
<rect x="330" y="434" width="481.86968838526906" height="20" fill="#2f6f9f"/>
<text x="816.869688385269" y="448" class="small">94.5</text>
<text x="8" y="473" class="small">Biomolecules, macromolecules and biochemical</text>
<text x="8" y="483" class="small">tests</text>
<rect x="330" y="461" width="480.84985835694044" height="20" fill="#2f6f9f"/>
<text x="815.8498583569404" y="475" class="small">94.3</text>
<text x="8" y="500" class="small">Protein structure, amino acids and enzymes</text>
<rect x="330" y="488" width="473.7110481586402" height="20" fill="#2f6f9f"/>
<text x="808.7110481586402" y="502" class="small">92.9</text>
<text x="8" y="527" class="small">Photosynthesis, pigments and carbon fixation</text>
<rect x="330" y="515" width="464.53257790368264" height="20" fill="#2f6f9f"/>
<text x="799.5325779036826" y="529" class="small">91.1</text>
<text x="8" y="554" class="small">Transcription, translation and gene</text>
<text x="8" y="564" class="small">regulation</text>
<rect x="330" y="542" width="464.02266288951836" height="20" fill="#2f6f9f"/>
<text x="799.0226628895184" y="556" class="small">91.0</text>
<text x="8" y="581" class="small">Phylogeny, cladograms and systematics</text>
<rect x="330" y="569" width="457.3937677053824" height="20" fill="#2f6f9f"/>
<text x="792.3937677053824" y="583" class="small">89.7</text>
<text x="8" y="608" class="small">Ecosystems, productivity and biogeochemical</text>
<text x="8" y="618" class="small">cycles</text>
<rect x="330" y="596" width="457.3937677053824" height="20" fill="#2f6f9f"/>
<text x="792.3937677053824" y="610" class="small">89.7</text>
<text x="8" y="635" class="small">Pedigrees and inheritance modes</text>
<rect x="330" y="623" width="456.88385269121807" height="20" fill="#2f6f9f"/>
<text x="791.8838526912181" y="637" class="small">89.6</text>
<text x="330" y="680" class="small">priority score</text>
</svg>