<svg xmlns="http://www.w3.org/2000/svg" width="940" height="692" viewBox="0 0 940 692">
<style>text{font-family:Arial,Helvetica,sans-serif;font-size:12px;fill:#1f2933}.title{font-size:18px;font-weight:700}.small{font-size:10px}</style>
<rect width="940" height="692" fill="white"/>
<text x="10" y="28" class="title">Learning-objective priority score</text>
<text x="8" y="68" class="small">Cardiovascular, respiratory and renal</text>
<text x="8" y="78" class="small">systems</text>
<rect x="330" y="56" width="540.0" height="20" fill="#2f6f9f"/>
<text x="875.0" y="70" class="small">90.6</text>
<text x="8" y="95" class="small">Mendelian genetics and probability</text>
<rect x="330" y="83" width="525.0993377483444" height="20" fill="#2f6f9f"/>
<text x="860.0993377483444" y="97" class="small">88.1</text>
<text x="8" y="122" class="small">Population/community ecology and</text>
<text x="8" y="132" class="small">biodiversity</text>
<rect x="330" y="110" width="523.3112582781457" height="20" fill="#2f6f9f"/>
<text x="858.3112582781457" y="124" class="small">87.8</text>
<text x="8" y="149" class="small">Microbiology, viruses, bacteria and</text>
<text x="8" y="159" class="small">pathogens</text>
<rect x="330" y="137" width="518.5430463576159" height="20" fill="#2f6f9f"/>
<text x="853.5430463576159" y="151" class="small">87.0</text>
<text x="8" y="176" class="small">Evolution, selection, adaptation and</text>
<text x="8" y="186" class="small">speciation</text>
<rect x="330" y="164" width="512.5827814569536" height="20" fill="#2f6f9f"/>
<text x="847.5827814569536" y="178" class="small">86.0</text>
<text x="8" y="203" class="small">Plant reproduction, development and life</text>
<text x="8" y="213" class="small">cycles</text>
<rect x="330" y="191" width="500.6622516556292" height="20" fill="#2f6f9f"/>
<text x="835.6622516556292" y="205" class="small">84.0</text>
<text x="8" y="230" class="small">Neurophysiology, muscle and sensory systems</text>
<rect x="330" y="218" width="496.49006622516555" height="20" fill="#2f6f9f"/>
<text x="831.4900662251655" y="232" class="small">83.3</text>
<text x="8" y="257" class="small">Plant tissues, xylem/phloem and water</text>
<text x="8" y="267" class="small">transport</text>
<rect x="330" y="245" width="495.2980132450331" height="20" fill="#2f6f9f"/>
<text x="830.2980132450331" y="259" class="small">83.1</text>
<text x="8" y="284" class="small">Endocrine feedback and homeostasis</text>
<rect x="330" y="272" width="492.317880794702" height="20" fill="#2f6f9f"/>
<text x="827.317880794702" y="286" class="small">82.6</text>
<text x="8" y="311" class="small">Biomolecules, macromolecules and biochemical</text>
<text x="8" y="321" class="small">tests</text>
<rect x="330" y="299" width="484.56953642384104" height="20" fill="#2f6f9f"/>
<text x="819.5695364238411" y="313" class="small">81.3</text>
<text x="8" y="338" class="small">Development, reproduction and embryology</text>
<rect x="330" y="326" width="478.6092715231788" height="20" fill="#2f6f9f"/>
<text x="813.6092715231788" y="340" class="small">80.3</text>
<text x="8" y="365" class="small">Cellular respiration, ETC and ATP synthesis</text>
<rect x="330" y="353" width="476.22516556291396" height="20" fill="#2f6f9f"/>
<text x="811.225165562914" y="367" class="small">79.9</text>
<text x="8" y="392" class="small">Behavior, learning and ethology</text>
<rect x="330" y="380" width="476.22516556291396" height="20" fill="#2f6f9f"/>
<text x="811.225165562914" y="394" class="small">79.9</text>
<text x="8" y="419" class="small">Digestion, nutrition, vitamins and</text>
<text x="8" y="429" class="small">metabolism</text>
<rect x="330" y="407" width="474.4370860927152" height="20" fill="#2f6f9f"/>
<text x="809.4370860927152" y="421" class="small">79.6</text>
<text x="8" y="446" class="small">Transcription, translation and gene</text>
<text x="8" y="456" class="small">regulation</text>
<rect x="330" y="434" width="464.90066225165566" height="20" fill="#2f6f9f"/>
<text x="799.9006622516556" y="448" class="small">78.0</text>
<text x="8" y="473" class="small">Phylogeny, cladograms and systematics</text>
<rect x="330" y="461" width="464.30463576158945" height="20" fill="#2f6f9f"/>
<text x="799.3046357615895" y="475" class="small">77.9</text>
<text x="8" y="500" class="small">Protein structure, amino acids and enzymes</text>
<rect x="330" y="488" width="458.9403973509934" height="20" fill="#2f6f9f"/>
<text x="793.9403973509934" y="502" class="small">77.0</text>
<text x="8" y="527" class="small">Photosynthesis, pigments and carbon fixation</text>
<rect x="330" y="515" width="447.0198675496689" height="20" fill="#2f6f9f"/>
<text x="782.0198675496689" y="529" class="small">75.0</text>
<text x="8" y="554" class="small">Immunology, inflammation and host defense</text>
<rect x="330" y="542" width="443.4437086092716" height="20" fill="#2f6f9f"/>
<text x="778.4437086092717" y="556" class="small">74.4</text>
<text x="8" y="581" class="small">DNA replication, chromosomes and telomeres</text>
<rect x="330" y="569" width="441.05960264900665" height="20" fill="#2f6f9f"/>
<text x="776.0596026490066" y="583" class="small">74.0</text>
<text x="8" y="608" class="small">Lab methods, biotechnology and molecular</text>
<text x="8" y="618" class="small">tools</text>
<rect x="330" y="596" width="441.05960264900665" height="20" fill="#2f6f9f"/>
<text x="776.0596026490066" y="610" class="small">74.0</text>
<text x="8" y="635" class="small">Ecosystems, productivity and biogeochemical</text>
<text x="8" y="645" class="small">cycles</text>
<rect x="330" y="623" width="436.887417218543" height="20" fill="#2f6f9f"/>
<text x="771.8874172185431" y="637" class="small">73.3</text>
<text x="330" y="680" class="small">priority score</text>
</svg>