<svg xmlns="http://www.w3.org/2000/svg" width="725" height="430" viewBox="0 0 725 430">
<style>text{font-family:Arial,Helvetica,sans-serif;font-size:12px;fill:#1f2933}.title{font-size:18px;font-weight:700}.small{font-size:10px}</style>
<rect width="725" height="430" fill="white"/>
<text x="10" y="28" class="title">Knowledge pillar distribution by stage</text>
<line x1="57" x2="695" y1="305" y2="305" stroke="#333"/>
<rect x="65" y="217.6" width="56" height="87.4" fill="#9ecae1"/>
<rect x="65" y="135.51999999999998" width="56" height="82.08" fill="#74c476"/>
<rect x="65" y="57.999999999999986" width="56" height="77.52" fill="#fd8d3c"/>
<text x="93.0" y="319" text-anchor="middle" class="small">325</text>
<text x="93.0" y="337" text-anchor="middle" class="small">Molecular/Cell</text>
<rect x="155" y="225.95999999999998" width="56" height="79.04" fill="#9ecae1"/>
<rect x="155" y="157.55999999999997" width="56" height="68.4" fill="#74c476"/>
<rect x="155" y="89.16" width="56" height="68.4" fill="#fd8d3c"/>
<text x="183.0" y="319" text-anchor="middle" class="small">284</text>
<text x="183.0" y="337" text-anchor="middle" class="small">Animal</text>
<text x="183.0" y="347" text-anchor="middle" class="small">Physiology</text>
<rect x="245" y="240.4" width="56" height="64.6" fill="#9ecae1"/>
<rect x="245" y="181.88" width="56" height="58.52" fill="#74c476"/>
<rect x="245" y="140.07999999999998" width="56" height="41.8" fill="#fd8d3c"/>
<text x="273.0" y="319" text-anchor="middle" class="small">217</text>
<text x="273.0" y="337" text-anchor="middle" class="small">Genetics/Evolution</text>
<rect x="335" y="268.52" width="56" height="36.48" fill="#9ecae1"/>
<rect x="335" y="239.64" width="56" height="28.88" fill="#74c476"/>
<rect x="335" y="212.27999999999997" width="56" height="27.36" fill="#fd8d3c"/>
<text x="363.0" y="319" text-anchor="middle" class="small">122</text>
<text x="363.0" y="337" text-anchor="middle" class="small">Ecology/Behavior</text>
<rect x="425" y="273.84" width="56" height="31.16" fill="#9ecae1"/>
<rect x="425" y="249.51999999999998" width="56" height="24.32" fill="#74c476"/>
<rect x="425" y="223.67999999999998" width="56" height="25.84" fill="#fd8d3c"/>
<text x="453.0" y="319" text-anchor="middle" class="small">107</text>
<text x="453.0" y="337" text-anchor="middle" class="small">Plant</text>
<rect x="515" y="286.0" width="56" height="19.0" fill="#9ecae1"/>
<rect x="515" y="279.16" width="56" height="6.84" fill="#74c476"/>
<rect x="515" y="260.92" width="56" height="18.24" fill="#fd8d3c"/>
<text x="543.0" y="319" text-anchor="middle" class="small">58</text>
<text x="543.0" y="337" text-anchor="middle" class="small">Microbiology/Pathogens</text>
<rect x="605" y="298.16" width="56" height="6.84" fill="#9ecae1"/>
<rect x="605" y="295.12" width="56" height="3.04" fill="#74c476"/>
<rect x="605" y="289.04" width="56" height="6.08" fill="#fd8d3c"/>
<text x="633.0" y="319" text-anchor="middle" class="small">21</text>
<text x="633.0" y="337" text-anchor="middle" class="small">Molecular/Methods</text>
<rect x="540" y="48" width="11" height="11" fill="#9ecae1"/>
<text x="556" y="58" class="small">Early</text>
<rect x="540" y="64" width="11" height="11" fill="#74c476"/>
<text x="556" y="74" class="small">Middle</text>
<rect x="540" y="80" width="11" height="11" fill="#fd8d3c"/>
<text x="556" y="90" class="small">Late</text>
</svg>