<svg xmlns="http://www.w3.org/2000/svg" width="725" height="430" viewBox="0 0 725 430">
<style>text{font-family:Arial,Helvetica,sans-serif;font-size:12px;fill:#1f2933}.title{font-size:18px;font-weight:700}.small{font-size:10px}</style>
<rect width="725" height="430" fill="white"/>
<text x="10" y="28" class="title">Knowledge pillar distribution by stage</text>
<line x1="57" x2="695" y1="305" y2="305" stroke="#333"/>
<rect x="65" y="220.45" width="56" height="84.55" fill="#9ecae1"/>
<rect x="65" y="140.64999999999998" width="56" height="79.8" fill="#74c476"/>
<rect x="65" y="58.0" width="56" height="82.65" fill="#fd8d3c"/>
<text x="93.0" y="319" text-anchor="middle" class="small">260</text>
<text x="93.0" y="337" text-anchor="middle" class="small">Molecular/Cell</text>
<rect x="155" y="226.15" width="56" height="78.85" fill="#9ecae1"/>
<rect x="155" y="153.0" width="56" height="73.15" fill="#74c476"/>
<rect x="155" y="83.65" width="56" height="69.35" fill="#fd8d3c"/>
<text x="183.0" y="319" text-anchor="middle" class="small">233</text>
<text x="183.0" y="337" text-anchor="middle" class="small">Animal</text>
<text x="183.0" y="347" text-anchor="middle" class="small">Physiology</text>
<rect x="245" y="238.5" width="56" height="66.5" fill="#9ecae1"/>
<rect x="245" y="184.35" width="56" height="54.15" fill="#74c476"/>
<rect x="245" y="143.5" width="56" height="40.85" fill="#fd8d3c"/>
<text x="273.0" y="319" text-anchor="middle" class="small">170</text>
<text x="273.0" y="337" text-anchor="middle" class="small">Genetics/Evolution</text>
<rect x="335" y="267.0" width="56" height="38.0" fill="#9ecae1"/>
<rect x="335" y="234.7" width="56" height="32.3" fill="#74c476"/>
<rect x="335" y="208.1" width="56" height="26.6" fill="#fd8d3c"/>
<text x="363.0" y="319" text-anchor="middle" class="small">102</text>
<text x="363.0" y="337" text-anchor="middle" class="small">Ecology/Behavior</text>
<rect x="425" y="272.7" width="56" height="32.3" fill="#9ecae1"/>
<rect x="425" y="248.0" width="56" height="24.7" fill="#74c476"/>
<rect x="425" y="224.25" width="56" height="23.75" fill="#fd8d3c"/>
<text x="453.0" y="319" text-anchor="middle" class="small">85</text>
<text x="453.0" y="337" text-anchor="middle" class="small">Plant</text>
<rect x="515" y="286.0" width="56" height="19.0" fill="#9ecae1"/>
<rect x="515" y="279.35" width="56" height="6.65" fill="#74c476"/>
<rect x="515" y="258.45000000000005" width="56" height="20.9" fill="#fd8d3c"/>
<text x="543.0" y="319" text-anchor="middle" class="small">49</text>
<text x="543.0" y="337" text-anchor="middle" class="small">Microbiology/Pathogens</text>
<rect x="605" y="299.3" width="56" height="5.7" fill="#9ecae1"/>
<rect x="605" y="294.55" width="56" height="4.75" fill="#74c476"/>
<rect x="605" y="287.90000000000003" width="56" height="6.65" fill="#fd8d3c"/>
<text x="633.0" y="319" text-anchor="middle" class="small">18</text>
<text x="633.0" y="337" text-anchor="middle" class="small">Molecular/Methods</text>
<rect x="540" y="48" width="11" height="11" fill="#9ecae1"/>
<text x="556" y="58" class="small">Early</text>
<rect x="540" y="64" width="11" height="11" fill="#74c476"/>
<text x="556" y="74" class="small">Middle</text>
<rect x="540" y="80" width="11" height="11" fill="#fd8d3c"/>
<text x="556" y="90" class="small">Late</text>
</svg>