<svg xmlns="http://www.w3.org/2000/svg" width="637" height="529" viewBox="0 0 637 529">
<style>text{font-family:Arial,Helvetica,sans-serif;font-size:12px;fill:#1f2933}.title{font-size:18px;font-weight:700}.small{font-size:10px}</style>
<rect width="637" height="529" fill="white"/>
<text x="10" y="28" class="title">Reasoning / format tag co-occurrence</text>
<text x="261.0" y="64" text-anchor="middle" class="small">Negation</text>
<text x="261.0" y="74" text-anchor="middle" class="small">trap</text>
<text x="323.0" y="64" text-anchor="middle" class="small">Calculation</text>
<text x="323.0" y="74" text-anchor="middle" class="small">/</text>
<text x="323.0" y="84" text-anchor="middle" class="small">quantitative</text>
<text x="385.0" y="64" text-anchor="middle" class="small">Multi-statement</text>
<text x="385.0" y="74" text-anchor="middle" class="small">/ Roman</text>
<text x="447.0" y="64" text-anchor="middle" class="small">Select-all /</text>
<text x="447.0" y="74" text-anchor="middle" class="small">multi-answer</text>
<text x="509.0" y="64" text-anchor="middle" class="small">Data/figure/table</text>
<text x="509.0" y="74" text-anchor="middle" class="small">reasoning</text>
<text x="571.0" y="64" text-anchor="middle" class="small">Experimental</text>
<text x="571.0" y="74" text-anchor="middle" class="small">design/control</text>
<text x="571.0" y="84" text-anchor="middle" class="small">reasoning</text>
<text x="8" y="136" class="small">Negation trap</text>
<rect x="230" y="112" width="60" height="60" fill="#3182bd" stroke="#fff"/>
<text x="261.0" y="147" text-anchor="middle" class="small">288</text>
<rect x="292" y="112" width="60" height="60" fill="#a0c6e3" stroke="#fff"/>
<text x="323.0" y="147" text-anchor="middle" class="small">51</text>
<rect x="354" y="112" width="60" height="60" fill="#c8def0" stroke="#fff"/>
<text x="385.0" y="147" text-anchor="middle" class="small">13</text>
<rect x="416" y="112" width="60" height="60" fill="#d6e6f5" stroke="#fff"/>
<text x="447.0" y="147" text-anchor="middle" class="small">6</text>
<rect x="478" y="112" width="60" height="60" fill="#a4c8e4" stroke="#fff"/>
<text x="509.0" y="147" text-anchor="middle" class="small">47</text>
<rect x="540" y="112" width="60" height="60" fill="#accde7" stroke="#fff"/>
<text x="571.0" y="147" text-anchor="middle" class="small">37</text>
<text x="8" y="198" class="small">Calculation / quantitative</text>
<rect x="230" y="174" width="60" height="60" fill="#a0c6e3" stroke="#fff"/>
<text x="261.0" y="209" text-anchor="middle" class="small">51</text>
<rect x="292" y="174" width="60" height="60" fill="#5f9ecc" stroke="#fff"/>
<text x="323.0" y="209" text-anchor="middle" class="small">167</text>
<rect x="354" y="174" width="60" height="60" fill="#d3e5f4" stroke="#fff"/>
<text x="385.0" y="209" text-anchor="middle" class="small">7</text>
<rect x="416" y="174" width="60" height="60" fill="#deebf8" stroke="#fff"/>
<text x="447.0" y="209" text-anchor="middle" class="small">3</text>
<rect x="478" y="174" width="60" height="60" fill="#bfd8ed" stroke="#fff"/>
<text x="509.0" y="209" text-anchor="middle" class="small">20</text>
<rect x="540" y="174" width="60" height="60" fill="#c5ddef" stroke="#fff"/>
<text x="571.0" y="209" text-anchor="middle" class="small">15</text>
<text x="8" y="260" class="small">Multi-statement / Roman</text>
<rect x="230" y="236" width="60" height="60" fill="#c8def0" stroke="#fff"/>
<text x="261.0" y="271" text-anchor="middle" class="small">13</text>
<rect x="292" y="236" width="60" height="60" fill="#d3e5f4" stroke="#fff"/>
<text x="323.0" y="271" text-anchor="middle" class="small">7</text>
<rect x="354" y="236" width="60" height="60" fill="#9fc5e2" stroke="#fff"/>
<text x="385.0" y="271" text-anchor="middle" class="small">53</text>
<rect x="416" y="236" width="60" height="60" fill="#f2f8ff" stroke="#fff"/>
<text x="447.0" y="271" text-anchor="middle" class="small">0</text>
<rect x="478" y="236" width="60" height="60" fill="#cee2f2" stroke="#fff"/>
<text x="509.0" y="271" text-anchor="middle" class="small">10</text>
<rect x="540" y="236" width="60" height="60" fill="#d6e6f5" stroke="#fff"/>
<text x="571.0" y="271" text-anchor="middle" class="small">6</text>
<text x="8" y="322" class="small">Select-all / multi-answer</text>
<rect x="230" y="298" width="60" height="60" fill="#d6e6f5" stroke="#fff"/>
<text x="261.0" y="333" text-anchor="middle" class="small">6</text>
<rect x="292" y="298" width="60" height="60" fill="#deebf8" stroke="#fff"/>
<text x="323.0" y="333" text-anchor="middle" class="small">3</text>
<rect x="354" y="298" width="60" height="60" fill="#f2f8ff" stroke="#fff"/>
<text x="385.0" y="333" text-anchor="middle" class="small">0</text>
<rect x="416" y="298" width="60" height="60" fill="#b2d1e9" stroke="#fff"/>
<text x="447.0" y="333" text-anchor="middle" class="small">31</text>
<rect x="478" y="298" width="60" height="60" fill="#d6e6f5" stroke="#fff"/>
<text x="509.0" y="333" text-anchor="middle" class="small">6</text>
<rect x="540" y="298" width="60" height="60" fill="#dbeaf7" stroke="#fff"/>
<text x="571.0" y="333" text-anchor="middle" class="small">4</text>
<text x="8" y="384" class="small">Data/figure/table reasoning</text>
<rect x="230" y="360" width="60" height="60" fill="#a4c8e4" stroke="#fff"/>
<text x="261.0" y="395" text-anchor="middle" class="small">47</text>
<rect x="292" y="360" width="60" height="60" fill="#bfd8ed" stroke="#fff"/>
<text x="323.0" y="395" text-anchor="middle" class="small">20</text>
<rect x="354" y="360" width="60" height="60" fill="#cee2f2" stroke="#fff"/>
<text x="385.0" y="395" text-anchor="middle" class="small">10</text>
<rect x="416" y="360" width="60" height="60" fill="#d6e6f5" stroke="#fff"/>
<text x="447.0" y="395" text-anchor="middle" class="small">6</text>
<rect x="478" y="360" width="60" height="60" fill="#62a0cd" stroke="#fff"/>
<text x="509.0" y="395" text-anchor="middle" class="small">159</text>
<rect x="540" y="360" width="60" height="60" fill="#bad5eb" stroke="#fff"/>
<text x="571.0" y="395" text-anchor="middle" class="small">24</text>
<text x="8" y="446" class="small">Experimental design/control</text>
<text x="8" y="456" class="small">reasoning</text>
<rect x="230" y="422" width="60" height="60" fill="#accde7" stroke="#fff"/>
<text x="261.0" y="457" text-anchor="middle" class="small">37</text>
<rect x="292" y="422" width="60" height="60" fill="#c5ddef" stroke="#fff"/>
<text x="323.0" y="457" text-anchor="middle" class="small">15</text>
<rect x="354" y="422" width="60" height="60" fill="#d6e6f5" stroke="#fff"/>
<text x="385.0" y="457" text-anchor="middle" class="small">6</text>
<rect x="416" y="422" width="60" height="60" fill="#dbeaf7" stroke="#fff"/>
<text x="447.0" y="457" text-anchor="middle" class="small">4</text>
<rect x="478" y="422" width="60" height="60" fill="#bad5eb" stroke="#fff"/>
<text x="509.0" y="457" text-anchor="middle" class="small">24</text>
<rect x="540" y="422" width="60" height="60" fill="#82b3d8" stroke="#fff"/>
<text x="571.0" y="457" text-anchor="middle" class="small">96</text>
</svg>